<?xml version="1.0" encoding="UTF-8"?>
<svg xmlns="http://www.w3.org/2000/svg" viewBox="0 0 1600 1000" width="1600" height="1000" role="img" aria-labelledby="title desc">
  <title id="title">매스몬 컬러·선·명암 검수판 2/4</title>
  <desc id="desc">같은 원본 지문으로 생성한 사용자 시각 승인용 검수판. 자동 승인에는 사용하지 않는다.</desc>
  <metadata>standard=eduitit-monster-review-sheet-v1; sourceFingerprint=d3419522738382bd16b460924c6fd002847ce8821526f5e72788f4aa3dcc0738; mode=color; page=2/4</metadata>
  <defs>
    <filter id="solidSilhouette" color-interpolation-filters="sRGB"><feColorMatrix type="matrix" values="0 0 0 0 0.035  0 0 0 0 0.035  0 0 0 0 0.04  0 0 0 1 0"/></filter>
    <style>.title{font:700 34px -apple-system,BlinkMacSystemFont,"Apple SD Gothic Neo",sans-serif;fill:#202633}.meta{font:500 18px -apple-system,BlinkMacSystemFont,"Apple SD Gothic Neo",sans-serif;fill:#626B7A}.name{font:700 18px -apple-system,BlinkMacSystemFont,"Apple SD Gothic Neo",sans-serif;fill:#252B36}.id{font:500 11px ui-monospace,SFMono-Regular,Menlo,monospace;fill:#7A8392}</style>
  </defs>
  <rect width="1600" height="1000" fill="#EEF1F6"/>
  <text x="50" y="55" class="title">매스몬 · 컬러·선·명암</text>
  <text x="50" y="88" class="meta">페이지 2/4 · 사용자 승인 전 비교용 · 자동 판정 금지</text>
  <text x="1550" y="88" text-anchor="end" class="meta">d34195227383</text>
  <g><title>고슴도치몬 · mathmon:ex-01-goseumdochi</title><rect x="50" y="130" width="240" height="190" rx="20" fill="#F8F9FC" stroke="#E1E5EC"/><image href="../../../../mathmon/explorer-pack/webp/mathmon-ex-01-goseumdochi.webp" x="104" y="132" width="142" height="142" preserveAspectRatio="xMidYMid meet"/><text x="66" y="291" class="name">고슴도치몬</text><text x="66" y="311" class="id">ex-01-goseumdochi</text><rect x="224" y="272" width="14" height="14" rx="3" fill="#F0D0B0"/><rect x="240" y="272" width="14" height="14" rx="3" fill="#905030"/><rect x="256" y="272" width="14" height="14" rx="3" fill="#503010"/><rect x="272" y="272" width="14" height="14" rx="3" fill="#F0F0B0"/></g>
<g><title>코알라몬 · mathmon:ex-02-koala</title><rect x="300" y="130" width="240" height="190" rx="20" fill="#F8F9FC" stroke="#E1E5EC"/><image href="../../../../mathmon/explorer-pack/webp/mathmon-ex-02-koala.webp" x="354" y="132" width="142" height="142" preserveAspectRatio="xMidYMid meet"/><text x="316" y="291" class="name">코알라몬</text><text x="316" y="311" class="id">ex-02-koala</text><rect x="474" y="272" width="14" height="14" rx="3" fill="#D0B0B0"/><rect x="490" y="272" width="14" height="14" rx="3" fill="#F0F0D0"/><rect x="506" y="272" width="14" height="14" rx="3" fill="#909090"/><rect x="522" y="272" width="14" height="14" rx="3" fill="#B0B0B0"/></g>
<g><title>알파카몬 · mathmon:ex-03-alpaca</title><rect x="550" y="130" width="240" height="190" rx="20" fill="#F8F9FC" stroke="#E1E5EC"/><image href="../../../../mathmon/explorer-pack/webp/mathmon-ex-03-alpaca.webp" x="604" y="132" width="142" height="142" preserveAspectRatio="xMidYMid meet"/><text x="566" y="291" class="name">알파카몬</text><text x="566" y="311" class="id">ex-03-alpaca</text><rect x="724" y="272" width="14" height="14" rx="3" fill="#F0F0D0"/><rect x="740" y="272" width="14" height="14" rx="3" fill="#F0F0B0"/><rect x="756" y="272" width="14" height="14" rx="3" fill="#F0D090"/><rect x="772" y="272" width="14" height="14" rx="3" fill="#F0D0B0"/></g>
<g><title>개구리몬 · mathmon:ex-04-gaeguri</title><rect x="800" y="130" width="240" height="190" rx="20" fill="#F8F9FC" stroke="#E1E5EC"/><image href="../../../../mathmon/explorer-pack/webp/mathmon-ex-04-gaeguri.webp" x="854" y="132" width="142" height="142" preserveAspectRatio="xMidYMid meet"/><text x="816" y="291" class="name">개구리몬</text><text x="816" y="311" class="id">ex-04-gaeguri</text><rect x="974" y="272" width="14" height="14" rx="3" fill="#F0F0B0"/><rect x="990" y="272" width="14" height="14" rx="3" fill="#B0D030"/><rect x="1006" y="272" width="14" height="14" rx="3" fill="#30B0F0"/><rect x="1022" y="272" width="14" height="14" rx="3" fill="#70B010"/></g>
<g><title>돌고래몬 · mathmon:ex-05-dolgorae</title><rect x="1050" y="130" width="240" height="190" rx="20" fill="#F8F9FC" stroke="#E1E5EC"/><image href="../../../../mathmon/explorer-pack/webp/mathmon-ex-05-dolgorae.webp" x="1104" y="132" width="142" height="142" preserveAspectRatio="xMidYMid meet"/><text x="1066" y="291" class="name">돌고래몬</text><text x="1066" y="311" class="id">ex-05-dolgorae</text><rect x="1224" y="272" width="14" height="14" rx="3" fill="#3090D0"/><rect x="1240" y="272" width="14" height="14" rx="3" fill="#F0F0F0"/><rect x="1256" y="272" width="14" height="14" rx="3" fill="#50B0D0"/><rect x="1272" y="272" width="14" height="14" rx="3" fill="#50B0F0"/></g>
<g><title>달팽몬 · mathmon:ex-06-dalpaeng</title><rect x="1300" y="130" width="240" height="190" rx="20" fill="#F8F9FC" stroke="#E1E5EC"/><image href="../../../../mathmon/explorer-pack/webp/mathmon-ex-06-dalpaeng.webp" x="1354" y="132" width="142" height="142" preserveAspectRatio="xMidYMid meet"/><text x="1316" y="291" class="name">달팽몬</text><text x="1316" y="311" class="id">ex-06-dalpaeng</text><rect x="1474" y="272" width="14" height="14" rx="3" fill="#F0F090"/><rect x="1490" y="272" width="14" height="14" rx="3" fill="#F0D070"/><rect x="1506" y="272" width="14" height="14" rx="3" fill="#F0D090"/><rect x="1522" y="272" width="14" height="14" rx="3" fill="#F0F0B0"/></g>
<g><title>우파루파몬 · mathmon:ex-07-woopalupa</title><rect x="50" y="335" width="240" height="190" rx="20" fill="#F8F9FC" stroke="#E1E5EC"/><image href="../../../../mathmon/explorer-pack/webp/mathmon-ex-07-woopalupa.webp" x="104" y="337" width="142" height="142" preserveAspectRatio="xMidYMid meet"/><text x="66" y="496" class="name">우파루파몬</text><text x="66" y="516" class="id">ex-07-woopalupa</text><rect x="224" y="477" width="14" height="14" rx="3" fill="#F0D0D0"/><rect x="240" y="477" width="14" height="14" rx="3" fill="#F0B0B0"/><rect x="256" y="477" width="14" height="14" rx="3" fill="#F09090"/><rect x="272" y="477" width="14" height="14" rx="3" fill="#F07090"/></g>
<g><title>박쥐몬 · mathmon:ex-08-bakjwi</title><rect x="300" y="335" width="240" height="190" rx="20" fill="#F8F9FC" stroke="#E1E5EC"/><image href="../../../../mathmon/explorer-pack/webp/mathmon-ex-08-bakjwi.webp" x="354" y="337" width="142" height="142" preserveAspectRatio="xMidYMid meet"/><text x="316" y="496" class="name">박쥐몬</text><text x="316" y="516" class="id">ex-08-bakjwi</text><rect x="474" y="477" width="14" height="14" rx="3" fill="#705070"/><rect x="490" y="477" width="14" height="14" rx="3" fill="#503050"/><rect x="506" y="477" width="14" height="14" rx="3" fill="#B05090"/><rect x="522" y="477" width="14" height="14" rx="3" fill="#905070"/></g>
<g><title>카피바라몬 · mathmon:ex-09-capybara</title><rect x="550" y="335" width="240" height="190" rx="20" fill="#F8F9FC" stroke="#E1E5EC"/><image href="../../../../mathmon/explorer-pack/webp/mathmon-ex-09-capybara.webp" x="604" y="337" width="142" height="142" preserveAspectRatio="xMidYMid meet"/><text x="566" y="496" class="name">카피바라몬</text><text x="566" y="516" class="id">ex-09-capybara</text><rect x="724" y="477" width="14" height="14" rx="3" fill="#F0B050"/><rect x="740" y="477" width="14" height="14" rx="3" fill="#F09030"/><rect x="756" y="477" width="14" height="14" rx="3" fill="#B07030"/><rect x="772" y="477" width="14" height="14" rx="3" fill="#F0B030"/></g>
<g><title>반딧불몬 · mathmon:ex-10-banditbul</title><rect x="800" y="335" width="240" height="190" rx="20" fill="#F8F9FC" stroke="#E1E5EC"/><image href="../../../../mathmon/explorer-pack/webp/mathmon-ex-10-banditbul.webp" x="854" y="337" width="142" height="142" preserveAspectRatio="xMidYMid meet"/><text x="816" y="496" class="name">반딧불몬</text><text x="816" y="516" class="id">ex-10-banditbul</text><rect x="974" y="477" width="14" height="14" rx="3" fill="#F0D050"/><rect x="990" y="477" width="14" height="14" rx="3" fill="#303030"/><rect x="1006" y="477" width="14" height="14" rx="3" fill="#F0D030"/><rect x="1022" y="477" width="14" height="14" rx="3" fill="#101010"/></g>
<g><title>문어셰프몬 · mathmon:ff-01-octochef</title><rect x="1050" y="335" width="240" height="190" rx="20" fill="#F8F9FC" stroke="#E1E5EC"/><image href="../../../../mathmon/fraction-friends-pack/webp/mathmon-ff-01-octochef.webp" x="1104" y="337" width="142" height="142" preserveAspectRatio="xMidYMid meet"/><text x="1066" y="496" class="name">문어셰프몬</text><text x="1066" y="516" class="id">ff-01-octochef</text><rect x="1224" y="477" width="14" height="14" rx="3" fill="#D090F0"/><rect x="1240" y="477" width="14" height="14" rx="3" fill="#B070D0"/><rect x="1256" y="477" width="14" height="14" rx="3" fill="#B070F0"/><rect x="1272" y="477" width="14" height="14" rx="3" fill="#9050D0"/></g>
<g><title>바구물범몬 · mathmon:ff-02-basketseal</title><rect x="1300" y="335" width="240" height="190" rx="20" fill="#F8F9FC" stroke="#E1E5EC"/><image href="../../../../mathmon/fraction-friends-pack/webp/mathmon-ff-02-basketseal.webp" x="1354" y="337" width="142" height="142" preserveAspectRatio="xMidYMid meet"/><text x="1316" y="496" class="name">바구물범몬</text><text x="1316" y="516" class="id">ff-02-basketseal</text><rect x="1474" y="477" width="14" height="14" rx="3" fill="#D0D0D0"/><rect x="1490" y="477" width="14" height="14" rx="3" fill="#F0F0F0"/><rect x="1506" y="477" width="14" height="14" rx="3" fill="#B0B0D0"/><rect x="1522" y="477" width="14" height="14" rx="3" fill="#F0F0D0"/></g>
<g><title>분류카멜몬 · mathmon:ff-03-sortchameleon</title><rect x="50" y="540" width="240" height="190" rx="20" fill="#F8F9FC" stroke="#E1E5EC"/><image href="../../../../mathmon/fraction-friends-pack/webp/mathmon-ff-03-sortchameleon.webp" x="104" y="542" width="142" height="142" preserveAspectRatio="xMidYMid meet"/><text x="66" y="701" class="name">분류카멜몬</text><text x="66" y="721" class="id">ff-03-sortchameleon</text><rect x="224" y="682" width="14" height="14" rx="3" fill="#F0F070"/><rect x="240" y="682" width="14" height="14" rx="3" fill="#F0D050"/><rect x="256" y="682" width="14" height="14" rx="3" fill="#F0F0F0"/><rect x="272" y="682" width="14" height="14" rx="3" fill="#101010"/></g>
<g><title>줄염소몬 · mathmon:ff-04-tuggoat</title><rect x="300" y="540" width="240" height="190" rx="20" fill="#F8F9FC" stroke="#E1E5EC"/><image href="../../../../mathmon/fraction-friends-pack/webp/mathmon-ff-04-tuggoat.webp" x="354" y="542" width="142" height="142" preserveAspectRatio="xMidYMid meet"/><text x="316" y="701" class="name">줄염소몬</text><text x="316" y="721" class="id">ff-04-tuggoat</text><rect x="474" y="682" width="14" height="14" rx="3" fill="#F0F0D0"/><rect x="490" y="682" width="14" height="14" rx="3" fill="#F0D0B0"/><rect x="506" y="682" width="14" height="14" rx="3" fill="#D0B090"/><rect x="522" y="682" width="14" height="14" rx="3" fill="#705030"/></g>
<g><title>양셰프몬 · mathmon:fr-01-lambchef</title><rect x="550" y="540" width="240" height="190" rx="20" fill="#F8F9FC" stroke="#E1E5EC"/><image href="../../../../mathmon/fraction-pack/webp/mathmon-fr-01-lambchef.webp" x="604" y="542" width="142" height="142" preserveAspectRatio="xMidYMid meet"/><text x="566" y="701" class="name">양셰프몬</text><text x="566" y="721" class="id">fr-01-lambchef</text><rect x="724" y="682" width="14" height="14" rx="3" fill="#F0F0D0"/><rect x="740" y="682" width="14" height="14" rx="3" fill="#F0F0F0"/><rect x="756" y="682" width="14" height="14" rx="3" fill="#F0D0B0"/><rect x="772" y="682" width="14" height="14" rx="3" fill="#F0B090"/></g>
<g><title>바구니캥거루몬 · mathmon:fr-02-basketkangaroo</title><rect x="800" y="540" width="240" height="190" rx="20" fill="#F8F9FC" stroke="#E1E5EC"/><image href="../../../../mathmon/fraction-pack/webp/mathmon-fr-02-basketkangaroo.webp" x="854" y="542" width="142" height="142" preserveAspectRatio="xMidYMid meet"/><text x="816" y="701" class="name">바구니캥거루몬</text><text x="816" y="721" class="id">fr-02-basketkangaroo</text><rect x="974" y="682" width="14" height="14" rx="3" fill="#F0B030"/><rect x="990" y="682" width="14" height="14" rx="3" fill="#F07010"/><rect x="1006" y="682" width="14" height="14" rx="3" fill="#F0B050"/><rect x="1022" y="682" width="14" height="14" rx="3" fill="#F09030"/></g>
<g><title>분류비버몬 · mathmon:fr-03-sorterbeaver</title><rect x="1050" y="540" width="240" height="190" rx="20" fill="#F8F9FC" stroke="#E1E5EC"/><image href="../../../../mathmon/fraction-pack/webp/mathmon-fr-03-sorterbeaver.webp" x="1104" y="542" width="142" height="142" preserveAspectRatio="xMidYMid meet"/><text x="1066" y="701" class="name">분류비버몬</text><text x="1066" y="721" class="id">fr-03-sorterbeaver</text><rect x="1224" y="682" width="14" height="14" rx="3" fill="#D07030"/><rect x="1240" y="682" width="14" height="14" rx="3" fill="#F0B030"/><rect x="1256" y="682" width="14" height="14" rx="3" fill="#703010"/><rect x="1272" y="682" width="14" height="14" rx="3" fill="#503010"/></g>
<g><title>챔프해마몬 · mathmon:fr-04-championseahorse</title><rect x="1300" y="540" width="240" height="190" rx="20" fill="#F8F9FC" stroke="#E1E5EC"/><image href="../../../../mathmon/fraction-pack/webp/mathmon-fr-04-championseahorse.webp" x="1354" y="542" width="142" height="142" preserveAspectRatio="xMidYMid meet"/><text x="1316" y="701" class="name">챔프해마몬</text><text x="1316" y="721" class="id">fr-04-championseahorse</text><rect x="1474" y="682" width="14" height="14" rx="3" fill="#F09090"/><rect x="1490" y="682" width="14" height="14" rx="3" fill="#F07070"/><rect x="1506" y="682" width="14" height="14" rx="3" fill="#F0B090"/><rect x="1522" y="682" width="14" height="14" rx="3" fill="#F05050"/></g>
<g><title>보송몬 · mathmon:mathmon-drv-01-cottonpuff</title><rect x="50" y="745" width="240" height="190" rx="20" fill="#F8F9FC" stroke="#E1E5EC"/><image href="../../../../mathmon/diversity-reward-pack/webp/mathmon-drv-01-cottonpuff.webp" x="104" y="747" width="142" height="142" preserveAspectRatio="xMidYMid meet"/><text x="66" y="906" class="name">보송몬</text><text x="66" y="926" class="id">mathmon-drv-01-cottonpuff</text><rect x="224" y="887" width="14" height="14" rx="3" fill="#D0D0B0"/><rect x="240" y="887" width="14" height="14" rx="3" fill="#D0B0B0"/><rect x="256" y="887" width="14" height="14" rx="3" fill="#F0F0D0"/><rect x="272" y="887" width="14" height="14" rx="3" fill="#F0B090"/></g>
<g><title>통통펭몬 · mathmon:mathmon-drv-02-bouncepenguin</title><rect x="300" y="745" width="240" height="190" rx="20" fill="#F8F9FC" stroke="#E1E5EC"/><image href="../../../../mathmon/diversity-reward-pack/webp/mathmon-drv-02-bouncepenguin.webp" x="354" y="747" width="142" height="142" preserveAspectRatio="xMidYMid meet"/><text x="316" y="906" class="name">통통펭몬</text><text x="316" y="926" class="id">mathmon-drv-02-bouncepenguin</text><rect x="474" y="887" width="14" height="14" rx="3" fill="#F0F0D0"/><rect x="490" y="887" width="14" height="14" rx="3" fill="#F0F0F0"/><rect x="506" y="887" width="14" height="14" rx="3" fill="#305090"/><rect x="522" y="887" width="14" height="14" rx="3" fill="#305070"/></g>
<g><title>분홍깃몬 · mathmon:mathmon-drv-03-blushphoenix</title><rect x="550" y="745" width="240" height="190" rx="20" fill="#F8F9FC" stroke="#E1E5EC"/><image href="../../../../mathmon/diversity-reward-pack/webp/mathmon-drv-03-blushphoenix.webp" x="604" y="747" width="142" height="142" preserveAspectRatio="xMidYMid meet"/><text x="566" y="906" class="name">분홍깃몬</text><text x="566" y="926" class="id">mathmon-drv-03-blushphoenix</text><rect x="724" y="887" width="14" height="14" rx="3" fill="#F09090"/><rect x="740" y="887" width="14" height="14" rx="3" fill="#F0B090"/><rect x="756" y="887" width="14" height="14" rx="3" fill="#F07070"/><rect x="772" y="887" width="14" height="14" rx="3" fill="#F05050"/></g>
<g><title>호랑몬 · mathmon:mathmon-drv-04-bravetiger</title><rect x="800" y="745" width="240" height="190" rx="20" fill="#F8F9FC" stroke="#E1E5EC"/><image href="../../../../mathmon/diversity-reward-pack/webp/mathmon-drv-04-bravetiger.webp" x="854" y="747" width="142" height="142" preserveAspectRatio="xMidYMid meet"/><text x="816" y="906" class="name">호랑몬</text><text x="816" y="926" class="id">mathmon-drv-04-bravetiger</text><rect x="974" y="887" width="14" height="14" rx="3" fill="#F0F0D0"/><rect x="990" y="887" width="14" height="14" rx="3" fill="#F09010"/><rect x="1006" y="887" width="14" height="14" rx="3" fill="#F0B010"/><rect x="1022" y="887" width="14" height="14" rx="3" fill="#503010"/></g>
<g><title>수정부엉몬 · mathmon:mathmon-drv-05-crystalowl</title><rect x="1050" y="745" width="240" height="190" rx="20" fill="#F8F9FC" stroke="#E1E5EC"/><image href="../../../../mathmon/diversity-reward-pack/webp/mathmon-drv-05-crystalowl.webp" x="1104" y="747" width="142" height="142" preserveAspectRatio="xMidYMid meet"/><text x="1066" y="906" class="name">수정부엉몬</text><text x="1066" y="926" class="id">mathmon-drv-05-crystalowl</text><rect x="1224" y="887" width="14" height="14" rx="3" fill="#F0F0F0"/><rect x="1240" y="887" width="14" height="14" rx="3" fill="#B090D0"/><rect x="1256" y="887" width="14" height="14" rx="3" fill="#7050B0"/><rect x="1272" y="887" width="14" height="14" rx="3" fill="#9070B0"/></g>
<g><title>번개늑대몬 · mathmon:mathmon-drv-06-thunderwolf</title><rect x="1300" y="745" width="240" height="190" rx="20" fill="#F8F9FC" stroke="#E1E5EC"/><image href="../../../../mathmon/diversity-reward-pack/webp/mathmon-drv-06-thunderwolf.webp" x="1354" y="747" width="142" height="142" preserveAspectRatio="xMidYMid meet"/><text x="1316" y="906" class="name">번개늑대몬</text><text x="1316" y="926" class="id">mathmon-drv-06-thunderwolf</text><rect x="1474" y="887" width="14" height="14" rx="3" fill="#F0F0D0"/><rect x="1490" y="887" width="14" height="14" rx="3" fill="#5090B0"/><rect x="1506" y="887" width="14" height="14" rx="3" fill="#3070B0"/><rect x="1522" y="887" width="14" height="14" rx="3" fill="#5070B0"/></g>
</svg>
