<?xml version="1.0" encoding="UTF-8"?>
<svg xmlns="http://www.w3.org/2000/svg" viewBox="0 0 1600 1000" width="1600" height="1000" role="img" aria-labelledby="title desc">
  <title id="title">매스몬 검은 실루엣 검수판 3/4</title>
  <desc id="desc">같은 원본 지문으로 생성한 사용자 시각 승인용 검수판. 자동 승인에는 사용하지 않는다.</desc>
  <metadata>standard=eduitit-monster-review-sheet-v1; sourceFingerprint=d3419522738382bd16b460924c6fd002847ce8821526f5e72788f4aa3dcc0738; mode=silhouette; page=3/4</metadata>
  <defs>
    <filter id="solidSilhouette" color-interpolation-filters="sRGB"><feColorMatrix type="matrix" values="0 0 0 0 0.035  0 0 0 0 0.035  0 0 0 0 0.04  0 0 0 1 0"/></filter>
    <style>.title{font:700 34px -apple-system,BlinkMacSystemFont,"Apple SD Gothic Neo",sans-serif;fill:#202633}.meta{font:500 18px -apple-system,BlinkMacSystemFont,"Apple SD Gothic Neo",sans-serif;fill:#626B7A}.name{font:700 18px -apple-system,BlinkMacSystemFont,"Apple SD Gothic Neo",sans-serif;fill:#252B36}.id{font:500 11px ui-monospace,SFMono-Regular,Menlo,monospace;fill:#7A8392}</style>
  </defs>
  <rect width="1600" height="1000" fill="#EEF1F6"/>
  <text x="50" y="55" class="title">매스몬 · 검은 실루엣</text>
  <text x="50" y="88" class="meta">페이지 3/4 · 사용자 승인 전 비교용 · 자동 판정 금지</text>
  <text x="1550" y="88" text-anchor="end" class="meta">d34195227383</text>
  <g><title>하늘그리핀몬 · mathmon:mathmon-drv-07-skygriffin</title><rect x="50" y="130" width="240" height="190" rx="20" fill="#F8F9FC" stroke="#E1E5EC"/><image href="../../../../mathmon/diversity-reward-pack/webp/mathmon-drv-07-skygriffin.webp" x="104" y="132" width="142" height="142" preserveAspectRatio="xMidYMid meet" filter="url(#solidSilhouette)"/><text x="66" y="291" class="name">하늘그리핀몬</text><text x="66" y="311" class="id">mathmon-drv-07-skygriffin</text></g>
<g><title>흑불드래곤몬 · mathmon:mathmon-drv-08-nightfiredragon</title><rect x="300" y="130" width="240" height="190" rx="20" fill="#F8F9FC" stroke="#E1E5EC"/><image href="../../../../mathmon/diversity-reward-pack/webp/mathmon-drv-08-nightfiredragon.webp" x="354" y="132" width="142" height="142" preserveAspectRatio="xMidYMid meet" filter="url(#solidSilhouette)"/><text x="316" y="291" class="name">흑불드래곤몬</text><text x="316" y="311" class="id">mathmon-drv-08-nightfiredragon</text></g>
<g><title>무지개유니몬 · mathmon:mathmon-drv-09-rainbowunicorn</title><rect x="550" y="130" width="240" height="190" rx="20" fill="#F8F9FC" stroke="#E1E5EC"/><image href="../../../../mathmon/diversity-reward-pack/webp/mathmon-drv-09-rainbowunicorn.webp" x="604" y="132" width="142" height="142" preserveAspectRatio="xMidYMid meet" filter="url(#solidSilhouette)"/><text x="566" y="291" class="name">무지개유니몬</text><text x="566" y="311" class="id">mathmon-drv-09-rainbowunicorn</text></g>
<g><title>황금드래곤몬 · mathmon:mathmon-drv-10-golddragon</title><rect x="800" y="130" width="240" height="190" rx="20" fill="#F8F9FC" stroke="#E1E5EC"/><image href="../../../../mathmon/diversity-reward-pack/webp/mathmon-drv-10-golddragon.webp" x="854" y="132" width="142" height="142" preserveAspectRatio="xMidYMid meet" filter="url(#solidSilhouette)"/><text x="816" y="291" class="name">황금드래곤몬</text><text x="816" y="311" class="id">mathmon-drv-10-golddragon</text></g>
<g><title>합체 준비 로봇 · mathmon:rfa-01-standby</title><rect x="1050" y="130" width="240" height="190" rx="20" fill="#F8F9FC" stroke="#E1E5EC"/><image href="../../../../mathmon/robot-fusion-action-pack/webp/mathmon-rfa-01-standby.webp" x="1104" y="132" width="142" height="142" preserveAspectRatio="xMidYMid meet" filter="url(#solidSilhouette)"/><text x="1066" y="291" class="name">합체 준비 로봇</text><text x="1066" y="311" class="id">rfa-01-standby</text></g>
<g><title>첫 조각 장착 로봇 · mathmon:rfa-02-one-part</title><rect x="1300" y="130" width="240" height="190" rx="20" fill="#F8F9FC" stroke="#E1E5EC"/><image href="../../../../mathmon/robot-fusion-action-pack/webp/mathmon-rfa-02-one-part.webp" x="1354" y="132" width="142" height="142" preserveAspectRatio="xMidYMid meet" filter="url(#solidSilhouette)"/><text x="1316" y="291" class="name">첫 조각 장착 로봇</text><text x="1316" y="311" class="id">rfa-02-one-part</text></g>
<g><title>두 조각 장착 로봇 · mathmon:rfa-03-two-parts</title><rect x="50" y="335" width="240" height="190" rx="20" fill="#F8F9FC" stroke="#E1E5EC"/><image href="../../../../mathmon/robot-fusion-action-pack/webp/mathmon-rfa-03-two-parts.webp" x="104" y="337" width="142" height="142" preserveAspectRatio="xMidYMid meet" filter="url(#solidSilhouette)"/><text x="66" y="496" class="name">두 조각 장착 로봇</text><text x="66" y="516" class="id">rfa-03-two-parts</text></g>
<g><title>완성 로봇 · mathmon:rfa-04-complete</title><rect x="300" y="335" width="240" height="190" rx="20" fill="#F8F9FC" stroke="#E1E5EC"/><image href="../../../../mathmon/robot-fusion-action-pack/webp/mathmon-rfa-04-complete.webp" x="354" y="337" width="142" height="142" preserveAspectRatio="xMidYMid meet" filter="url(#solidSilhouette)"/><text x="316" y="496" class="name">완성 로봇</text><text x="316" y="516" class="id">rfa-04-complete</text></g>
<g><title>택배여우몬 · mathmon:wt-01-courierfox</title><rect x="550" y="335" width="240" height="190" rx="20" fill="#F8F9FC" stroke="#E1E5EC"/><image href="../../../../mathmon/weight-pack/webp/mathmon-wt-01-courierfox.webp" x="604" y="337" width="142" height="142" preserveAspectRatio="xMidYMid meet" filter="url(#solidSilhouette)"/><text x="566" y="496" class="name">택배여우몬</text><text x="566" y="516" class="id">wt-01-courierfox</text></g>
<g><title>기어리몬 · mathmon:zf-01-geariemon</title><rect x="800" y="335" width="240" height="190" rx="20" fill="#F8F9FC" stroke="#E1E5EC"/><image href="../../../../mathmon/zero-factory-pack/webp/mathmon-zf-01-geariemon.webp" x="854" y="337" width="142" height="142" preserveAspectRatio="xMidYMid meet" filter="url(#solidSilhouette)"/><text x="816" y="496" class="name">기어리몬</text><text x="816" y="516" class="id">zf-01-geariemon</text></g>
<g><title>볼티몬 · mathmon:zf-02-boltimon</title><rect x="1050" y="335" width="240" height="190" rx="20" fill="#F8F9FC" stroke="#E1E5EC"/><image href="../../../../mathmon/zero-factory-pack/webp/mathmon-zf-02-boltimon.webp" x="1104" y="337" width="142" height="142" preserveAspectRatio="xMidYMid meet" filter="url(#solidSilhouette)"/><text x="1066" y="496" class="name">볼티몬</text><text x="1066" y="516" class="id">zf-02-boltimon</text></g>
<g><title>컨베몬 · mathmon:zf-03-conveymon</title><rect x="1300" y="335" width="240" height="190" rx="20" fill="#F8F9FC" stroke="#E1E5EC"/><image href="../../../../mathmon/zero-factory-pack/webp/mathmon-zf-03-conveymon.webp" x="1354" y="337" width="142" height="142" preserveAspectRatio="xMidYMid meet" filter="url(#solidSilhouette)"/><text x="1316" y="496" class="name">컨베몬</text><text x="1316" y="516" class="id">zf-03-conveymon</text></g>
<g><title>마그네몬 · mathmon:zf-04-magnemon</title><rect x="50" y="540" width="240" height="190" rx="20" fill="#F8F9FC" stroke="#E1E5EC"/><image href="../../../../mathmon/zero-factory-pack/webp/mathmon-zf-04-magnemon.webp" x="104" y="542" width="142" height="142" preserveAspectRatio="xMidYMid meet" filter="url(#solidSilhouette)"/><text x="66" y="701" class="name">마그네몬</text><text x="66" y="721" class="id">zf-04-magnemon</text></g>
<g><title>피스톤몬 · mathmon:zf-05-pistonmon</title><rect x="300" y="540" width="240" height="190" rx="20" fill="#F8F9FC" stroke="#E1E5EC"/><image href="../../../../mathmon/zero-factory-pack/webp/mathmon-zf-05-pistonmon.webp" x="354" y="542" width="142" height="142" preserveAspectRatio="xMidYMid meet" filter="url(#solidSilhouette)"/><text x="316" y="701" class="name">피스톤몬</text><text x="316" y="721" class="id">zf-05-pistonmon</text></g>
<g><title>서킷몬 · mathmon:zf-06-circuitmon</title><rect x="550" y="540" width="240" height="190" rx="20" fill="#F8F9FC" stroke="#E1E5EC"/><image href="../../../../mathmon/zero-factory-pack/webp/mathmon-zf-06-circuitmon.webp" x="604" y="542" width="142" height="142" preserveAspectRatio="xMidYMid meet" filter="url(#solidSilhouette)"/><text x="566" y="701" class="name">서킷몬</text><text x="566" y="721" class="id">zf-06-circuitmon</text></g>
<g><title>클로몬 · mathmon:zf-07-clawmon</title><rect x="800" y="540" width="240" height="190" rx="20" fill="#F8F9FC" stroke="#E1E5EC"/><image href="../../../../mathmon/zero-factory-pack/webp/mathmon-zf-07-clawmon.webp" x="854" y="542" width="142" height="142" preserveAspectRatio="xMidYMid meet" filter="url(#solidSilhouette)"/><text x="816" y="701" class="name">클로몬</text><text x="816" y="721" class="id">zf-07-clawmon</text></g>
<g><title>프리즘몬 · mathmon:zf-08-prismon</title><rect x="1050" y="540" width="240" height="190" rx="20" fill="#F8F9FC" stroke="#E1E5EC"/><image href="../../../../mathmon/zero-factory-pack/webp/mathmon-zf-08-prismon.webp" x="1104" y="542" width="142" height="142" preserveAspectRatio="xMidYMid meet" filter="url(#solidSilhouette)"/><text x="1066" y="701" class="name">프리즘몬</text><text x="1066" y="721" class="id">zf-08-prismon</text></g>
<g><title>다이얼몬 · mathmon:zf-09-dialmon</title><rect x="1300" y="540" width="240" height="190" rx="20" fill="#F8F9FC" stroke="#E1E5EC"/><image href="../../../../mathmon/zero-factory-pack/webp/mathmon-zf-09-dialmon.webp" x="1354" y="542" width="142" height="142" preserveAspectRatio="xMidYMid meet" filter="url(#solidSilhouette)"/><text x="1316" y="701" class="name">다이얼몬</text><text x="1316" y="721" class="id">zf-09-dialmon</text></g>
<g><title>팩몬 · mathmon:zf-10-packmon</title><rect x="50" y="745" width="240" height="190" rx="20" fill="#F8F9FC" stroke="#E1E5EC"/><image href="../../../../mathmon/zero-factory-pack/webp/mathmon-zf-10-packmon.webp" x="104" y="747" width="142" height="142" preserveAspectRatio="xMidYMid meet" filter="url(#solidSilhouette)"/><text x="66" y="906" class="name">팩몬</text><text x="66" y="926" class="id">zf-10-packmon</text></g>
<g><title>기어리몬 · mathmon:zf-v2-01-geariemon</title><rect x="300" y="745" width="240" height="190" rx="20" fill="#F8F9FC" stroke="#E1E5EC"/><image href="../../../../mathmon/zero-factory-pack-v2/webp/mathmon-zf-v2-01-geariemon.webp" x="354" y="747" width="142" height="142" preserveAspectRatio="xMidYMid meet" filter="url(#solidSilhouette)"/><text x="316" y="906" class="name">기어리몬</text><text x="316" y="926" class="id">zf-v2-01-geariemon</text></g>
<g><title>볼티몬 · mathmon:zf-v2-02-boltimon</title><rect x="550" y="745" width="240" height="190" rx="20" fill="#F8F9FC" stroke="#E1E5EC"/><image href="../../../../mathmon/zero-factory-pack-v2/webp/mathmon-zf-v2-02-boltimon.webp" x="604" y="747" width="142" height="142" preserveAspectRatio="xMidYMid meet" filter="url(#solidSilhouette)"/><text x="566" y="906" class="name">볼티몬</text><text x="566" y="926" class="id">zf-v2-02-boltimon</text></g>
<g><title>컨베몬 · mathmon:zf-v2-03-conveymon</title><rect x="800" y="745" width="240" height="190" rx="20" fill="#F8F9FC" stroke="#E1E5EC"/><image href="../../../../mathmon/zero-factory-pack-v2/webp/mathmon-zf-v2-03-conveymon.webp" x="854" y="747" width="142" height="142" preserveAspectRatio="xMidYMid meet" filter="url(#solidSilhouette)"/><text x="816" y="906" class="name">컨베몬</text><text x="816" y="926" class="id">zf-v2-03-conveymon</text></g>
<g><title>마그네몬 · mathmon:zf-v2-04-magnemon</title><rect x="1050" y="745" width="240" height="190" rx="20" fill="#F8F9FC" stroke="#E1E5EC"/><image href="../../../../mathmon/zero-factory-pack-v2/webp/mathmon-zf-v2-04-magnemon.webp" x="1104" y="747" width="142" height="142" preserveAspectRatio="xMidYMid meet" filter="url(#solidSilhouette)"/><text x="1066" y="906" class="name">마그네몬</text><text x="1066" y="926" class="id">zf-v2-04-magnemon</text></g>
<g><title>피스톤몬 · mathmon:zf-v2-05-pistonmon</title><rect x="1300" y="745" width="240" height="190" rx="20" fill="#F8F9FC" stroke="#E1E5EC"/><image href="../../../../mathmon/zero-factory-pack-v2/webp/mathmon-zf-v2-05-pistonmon.webp" x="1354" y="747" width="142" height="142" preserveAspectRatio="xMidYMid meet" filter="url(#solidSilhouette)"/><text x="1316" y="906" class="name">피스톤몬</text><text x="1316" y="926" class="id">zf-v2-05-pistonmon</text></g>
</svg>
