<svg xmlns="http://www.w3.org/2000/svg" width="512" height="384" viewBox="0 0 512 384" role="img">
  <rect width="512" height="384" rx="36" fill="#fff5d9"/>
  <circle cx="420" cy="76" r="38" fill="#ffd56a"/>
  <path d="M80 232V137l86-62 86 62v95" fill="#f28c6b" stroke="#173a59" stroke-width="12" stroke-linejoin="round"/>
  <path d="M66 232h198M111 143h110M111 143v89M221 143v89" fill="none" stroke="#173a59" stroke-width="12" stroke-linecap="round"/>
  <rect x="139" y="168" width="43" height="42" rx="5" fill="#a8d9d0" stroke="#173a59" stroke-width="9"/>
  <path d="M302 224h112v-62h-112z" fill="#e9b36e" stroke="#173a59" stroke-width="11"/>
  <path d="M292 224h132M319 162v62M397 162v62M319 146h78" fill="none" stroke="#173a59" stroke-width="10" stroke-linecap="round"/>
  <circle cx="338" cy="274" r="24" fill="#f3a36e" stroke="#173a59" stroke-width="10"/>
  <path d="M338 299v44m-30-22h60m-47 41 17-19 17 19" fill="none" stroke="#173a59" stroke-width="10" stroke-linecap="round"/>
</svg>
